<svg xmlns="http://www.w3.org/2000/svg" xmlns:xlink="http://www.w3.org/1999/xlink" width="65.117" height="89.532" viewBox="0 0 82.117 89.532">
  <defs>
    <filter id="Path_16" x="0" y="9" width="73.502" height="80.532" filterUnits="userSpaceOnUse">
      <feOffset input="SourceAlpha"/>
      <feGaussianBlur stdDeviation="3.5" result="blur"/>
      <feFlood flood-opacity="0.49"/>
      <feComposite operator="in" in2="blur"/>
      <feComposite in="SourceGraphic"/>
    </filter>
    <filter id="Path_16-2" x="8.615" y="9" width="73.502" height="80.532" filterUnits="userSpaceOnUse">
      <feOffset input="SourceAlpha"/>
      <feGaussianBlur stdDeviation="3.5" result="blur-2"/>
      <feFlood flood-opacity="0.49"/>
      <feComposite operator="in" in2="blur-2"/>
      <feComposite in="SourceGraphic"/>
    </filter>
    <filter id="Path_16-3" x="4.615" y="0" width="73.502" height="80.532" filterUnits="userSpaceOnUse">
      <feOffset input="SourceAlpha"/>
      <feGaussianBlur stdDeviation="3.5" result="blur-3"/>
      <feFlood flood-opacity="0.49"/>
      <feComposite operator="in" in2="blur-3"/>
      <feComposite in="SourceGraphic"/>
    </filter>
    <filter id="Path_16-4" x="0" y="4" width="73.502" height="80.532" filterUnits="userSpaceOnUse">
      <feOffset input="SourceAlpha"/>
      <feGaussianBlur stdDeviation="3.5" result="blur-4"/>
      <feFlood flood-opacity="0.49"/>
      <feComposite operator="in" in2="blur-4"/>
      <feComposite in="SourceGraphic"/>
    </filter>
    <filter id="Path_16-5" x="4.615" y="9" width="73.502" height="80.532" filterUnits="userSpaceOnUse">
      <feOffset input="SourceAlpha"/>
      <feGaussianBlur stdDeviation="3.5" result="blur-5"/>
      <feFlood flood-opacity="0.49"/>
      <feComposite operator="in" in2="blur-5"/>
      <feComposite in="SourceGraphic"/>
    </filter>
  </defs>
  <g id="Group_23" data-name="Group 23" transform="translate(-664.085 -480.427)">
    <g transform="matrix(1, 0, 0, 1, 664.08, 480.43)" filter="url(#Path_16)">
      <path id="Path_16-6" data-name="Path 16" d="M21.226,1.216C37.758-2.632,40.39,3.388,43.458,9.054s2.29,4.757,4.366,10.076,1.3,9.236-3.243,12.868-30.487,1.273-30.487,1.273l.577-8.952s22.061-.389,22.451-3.049-2.465-5.9-3.762-6.876c-1.462-1.7-7.27-3.535-11.871-2.854s-6.552,5.579-6.552,5.579l-.266,15.449A11.464,11.464,0,0,0,18.05,40.8c3.618,3.387,3.049,3.438,10.573,6.292s21.155-1.979,22.689,0c.538,2.293,3.266,4.788-1.973,7.887-2.479,1.474-10.52,5.458-16.824,4.372-8.044-1.881-15.2-2.225-20.553-6.115C3.809,47.3.623,36.851,1.132,27.58c.461-8.4-3.257-20.167.74-24.787,1.063-1.232,5.122-1.015,8.222,0,.526.176-.342,1.81.548,1.864C13.928,4.853,17.621,2.055,21.226,1.216Z" transform="translate(63 79.03) rotate(180)" fill="#ffa2a2"/>
    </g>
    <g transform="matrix(1, 0, 0, 1, 664.08, 480.43)" filter="url(#Path_16-2)">
      <path id="Path_16-7" data-name="Path 16" d="M21.226,1.216C37.758-2.632,40.39,3.388,43.458,9.054s2.29,4.757,4.366,10.076,1.3,9.236-3.243,12.868-30.487,1.273-30.487,1.273l.577-8.952s22.061-.389,22.451-3.049-2.465-5.9-3.762-6.876c-1.462-1.7-7.27-3.535-11.871-2.854s-6.552,5.579-6.552,5.579l-.266,15.449A11.464,11.464,0,0,0,18.05,40.8c3.618,3.387,3.049,3.438,10.573,6.292s21.155-1.979,22.689,0c.538,2.293,3.266,4.788-1.973,7.887-2.479,1.474-10.52,5.458-16.824,4.372-8.044-1.881-15.2-2.225-20.553-6.115C3.809,47.3.623,36.851,1.132,27.58c.461-8.4-3.257-20.167.74-24.787,1.063-1.232,5.122-1.015,8.222,0,.526.176-.342,1.81.548,1.864C13.928,4.853,17.621,2.055,21.226,1.216Z" transform="translate(71.62 79.03) rotate(180)" fill="#ffa2a2"/>
    </g>
    <g transform="matrix(1, 0, 0, 1, 664.08, 480.43)" filter="url(#Path_16-3)">
      <path id="Path_16-8" data-name="Path 16" d="M21.226,1.216C37.758-2.632,40.39,3.388,43.458,9.054s2.29,4.757,4.366,10.076,1.3,9.236-3.243,12.868-30.487,1.273-30.487,1.273l.577-8.952s22.061-.389,22.451-3.049-2.465-5.9-3.762-6.876c-1.462-1.7-7.27-3.535-11.871-2.854s-6.552,5.579-6.552,5.579l-.266,15.449A11.464,11.464,0,0,0,18.05,40.8c3.618,3.387,3.049,3.438,10.573,6.292s21.155-1.979,22.689,0c.538,2.293,3.266,4.788-1.973,7.887-2.479,1.474-10.52,5.458-16.824,4.372-8.044-1.881-15.2-2.225-20.553-6.115C3.809,47.3.623,36.851,1.132,27.58c.461-8.4-3.257-20.167.74-24.787,1.063-1.232,5.122-1.015,8.222,0,.526.176-.342,1.81.548,1.864C13.928,4.853,17.621,2.055,21.226,1.216Z" transform="translate(67.62 70.03) rotate(180)" fill="#ffa2a2"/>
    </g>
    <g transform="matrix(1, 0, 0, 1, 664.08, 480.43)" filter="url(#Path_16-4)">
      <path id="Path_16-9" data-name="Path 16" d="M21.226,1.216C37.758-2.632,40.39,3.388,43.458,9.054s2.29,4.757,4.366,10.076,1.3,9.236-3.243,12.868-30.487,1.273-30.487,1.273l.577-8.952s22.061-.389,22.451-3.049-2.465-5.9-3.762-6.876c-1.462-1.7-7.27-3.535-11.871-2.854s-6.552,5.579-6.552,5.579l-.266,15.449A11.464,11.464,0,0,0,18.05,40.8c3.618,3.387,3.049,3.438,10.573,6.292s21.155-1.979,22.689,0c.538,2.293,3.266,4.788-1.973,7.887-2.479,1.474-10.52,5.458-16.824,4.372-8.044-1.881-15.2-2.225-20.553-6.115C3.809,47.3.623,36.851,1.132,27.58c.461-8.4-3.257-20.167.74-24.787,1.063-1.232,5.122-1.015,8.222,0,.526.176-.342,1.81.548,1.864C13.928,4.853,17.621,2.055,21.226,1.216Z" transform="translate(63 74.03) rotate(180)" fill="#ffa2a2"/>
    </g>
    <g transform="matrix(1, 0, 0, 1, 664.08, 480.43)" filter="url(#Path_16-5)">
      <path id="Path_16-10" data-name="Path 16" d="M21.226,1.216C37.758-2.632,40.39,3.388,43.458,9.054s2.29,4.757,4.366,10.076,1.3,9.236-3.243,12.868-30.487,1.273-30.487,1.273l.577-8.952s22.061-.389,22.451-3.049-2.465-5.9-3.762-6.876c-1.462-1.7-7.27-3.535-11.871-2.854s-6.552,5.579-6.552,5.579l-.266,15.449A11.464,11.464,0,0,0,18.05,40.8c3.618,3.387,3.049,3.438,10.573,6.292s21.155-1.979,22.689,0c.538,2.293,3.266,4.788-1.973,7.887-2.479,1.474-10.52,5.458-16.824,4.372-8.044-1.881-15.2-2.225-20.553-6.115C3.809,47.3.623,36.851,1.132,27.58c.461-8.4-3.257-20.167.74-24.787,1.063-1.232,5.122-1.015,8.222,0,.526.176-.342,1.81.548,1.864C13.928,4.853,17.621,2.055,21.226,1.216Z" transform="translate(67.62 79.03) rotate(180)" fill="#650000"/>
    </g>
  </g>
</svg>
