<svg xmlns="http://www.w3.org/2000/svg" xmlns:xlink="http://www.w3.org/1999/xlink" width="130.912" height="196.057" viewBox="0 0 180.912 196.057">
  <defs>
    <filter id="Path_10" x="0" y="9" width="172.297" height="187.057" filterUnits="userSpaceOnUse">
      <feOffset input="SourceAlpha"/>
      <feGaussianBlur stdDeviation="3.5" result="blur"/>
      <feFlood flood-opacity="0.49"/>
      <feComposite operator="in" in2="blur"/>
      <feComposite in="SourceGraphic"/>
    </filter>
    <filter id="Path_10-2" x="8.615" y="9" width="172.297" height="187.057" filterUnits="userSpaceOnUse">
      <feOffset input="SourceAlpha"/>
      <feGaussianBlur stdDeviation="3.5" result="blur-2"/>
      <feFlood flood-opacity="0.49"/>
      <feComposite operator="in" in2="blur-2"/>
      <feComposite in="SourceGraphic"/>
    </filter>
    <filter id="Path_10-3" x="4.615" y="0" width="172.297" height="187.057" filterUnits="userSpaceOnUse">
      <feOffset input="SourceAlpha"/>
      <feGaussianBlur stdDeviation="3.5" result="blur-3"/>
      <feFlood flood-opacity="0.49"/>
      <feComposite operator="in" in2="blur-3"/>
      <feComposite in="SourceGraphic"/>
    </filter>
    <filter id="Path_10-4" x="0" y="4" width="172.297" height="187.057" filterUnits="userSpaceOnUse">
      <feOffset input="SourceAlpha"/>
      <feGaussianBlur stdDeviation="3.5" result="blur-4"/>
      <feFlood flood-opacity="0.49"/>
      <feComposite operator="in" in2="blur-4"/>
      <feComposite in="SourceGraphic"/>
    </filter>
    <filter id="Path_10-5" x="4.615" y="9" width="172.297" height="187.057" filterUnits="userSpaceOnUse">
      <feOffset input="SourceAlpha"/>
      <feGaussianBlur stdDeviation="3.5" result="blur-5"/>
      <feFlood flood-opacity="0.49"/>
      <feComposite operator="in" in2="blur-5"/>
      <feComposite in="SourceGraphic"/>
    </filter>
  </defs>
  <g id="Group_17" data-name="Group 17" transform="translate(-209.5 -383.465)">
    <g transform="matrix(1, 0, 0, 1, 209.5, 383.47)" filter="url(#Path_10)">
      <path id="Path_10-6" data-name="Path 10" d="M-2.465,149.126c.208-3.862,41.232-35.6,59.133-76.665A288.2,288.2,0,0,0,77.254,3.588C77.684.82,78.2.247,79.643-.924s20.99-1.3,22.72.288.833.621,1.932,3.723c2.547,7.184,8.533,24.933,16.36,53.4,10.722,39,16.332,79.727,15.048,89.827s-20.738,6.847-23.43.477,2.515-49.04-4.513-60.365-34.047-3.289-34.047-3.289.374-9.078,5.427-11.582S103.6,72.8,105.27,70.423,91.436,29.448,89.054,30.256,88.666,53.943,74.2,83.489s-36.715,61.642-43.007,64.952S-2.673,152.987-2.465,149.126Z" transform="matrix(1, -0.09, 0.09, 1, 13.11, 33.15)" fill="#ffa2a2"/>
    </g>
    <g transform="matrix(1, 0, 0, 1, 209.5, 383.47)" filter="url(#Path_10-2)">
      <path id="Path_10-7" data-name="Path 10" d="M-2.465,149.126c.208-3.862,41.232-35.6,59.133-76.665A288.2,288.2,0,0,0,77.254,3.588C77.684.82,78.2.247,79.643-.924s20.99-1.3,22.72.288.833.621,1.932,3.723c2.547,7.184,8.533,24.933,16.36,53.4,10.722,39,16.332,79.727,15.048,89.827s-20.738,6.847-23.43.477,2.515-49.04-4.513-60.365-34.047-3.289-34.047-3.289.374-9.078,5.427-11.582S103.6,72.8,105.27,70.423,91.436,29.448,89.054,30.256,88.666,53.943,74.2,83.489s-36.715,61.642-43.007,64.952S-2.673,152.987-2.465,149.126Z" transform="matrix(1, -0.09, 0.09, 1, 21.73, 33.15)" fill="#ffa2a2"/>
    </g>
    <g transform="matrix(1, 0, 0, 1, 209.5, 383.47)" filter="url(#Path_10-3)">
      <path id="Path_10-8" data-name="Path 10" d="M-2.465,149.126c.208-3.862,41.232-35.6,59.133-76.665A288.2,288.2,0,0,0,77.254,3.588C77.684.82,78.2.247,79.643-.924s20.99-1.3,22.72.288.833.621,1.932,3.723c2.547,7.184,8.533,24.933,16.36,53.4,10.722,39,16.332,79.727,15.048,89.827s-20.738,6.847-23.43.477,2.515-49.04-4.513-60.365-34.047-3.289-34.047-3.289.374-9.078,5.427-11.582S103.6,72.8,105.27,70.423,91.436,29.448,89.054,30.256,88.666,53.943,74.2,83.489s-36.715,61.642-43.007,64.952S-2.673,152.987-2.465,149.126Z" transform="matrix(1, -0.09, 0.09, 1, 17.73, 24.15)" fill="#ffa2a2"/>
    </g>
    <g transform="matrix(1, 0, 0, 1, 209.5, 383.47)" filter="url(#Path_10-4)">
      <path id="Path_10-9" data-name="Path 10" d="M-2.465,149.126c.208-3.862,41.232-35.6,59.133-76.665A288.2,288.2,0,0,0,77.254,3.588C77.684.82,78.2.247,79.643-.924s20.99-1.3,22.72.288.833.621,1.932,3.723c2.547,7.184,8.533,24.933,16.36,53.4,10.722,39,16.332,79.727,15.048,89.827s-20.738,6.847-23.43.477,2.515-49.04-4.513-60.365-34.047-3.289-34.047-3.289.374-9.078,5.427-11.582S103.6,72.8,105.27,70.423,91.436,29.448,89.054,30.256,88.666,53.943,74.2,83.489s-36.715,61.642-43.007,64.952S-2.673,152.987-2.465,149.126Z" transform="matrix(1, -0.09, 0.09, 1, 13.11, 28.15)" fill="#ffa2a2"/>
    </g>
    <g transform="matrix(1, 0, 0, 1, 209.5, 383.47)" filter="url(#Path_10-5)">
      <path id="Path_10-10" data-name="Path 10" d="M-2.465,149.126c.208-3.862,41.232-35.6,59.133-76.665A288.2,288.2,0,0,0,77.254,3.588C77.684.82,78.2.247,79.643-.924s20.99-1.3,22.72.288.833.621,1.932,3.723c2.547,7.184,8.533,24.933,16.36,53.4,10.722,39,16.332,79.727,15.048,89.827s-20.738,6.847-23.43.477,2.515-49.04-4.513-60.365-34.047-3.289-34.047-3.289.374-9.078,5.427-11.582S103.6,72.8,105.27,70.423,91.436,29.448,89.054,30.256,88.666,53.943,74.2,83.489s-36.715,61.642-43.007,64.952S-2.673,152.987-2.465,149.126Z" transform="matrix(1, -0.09, 0.09, 1, 17.73, 33.15)" fill="#650000"/>
    </g>
  </g>
</svg>
