<svg xmlns="http://www.w3.org/2000/svg" width="147" height="112" viewBox="0 0 147 112">
  <g id="Group_33" data-name="Group 33" transform="translate(-1716 -728)">
    <g id="Group_32" data-name="Group 32" transform="translate(114 48)">
      <rect id="Rectangle_19" data-name="Rectangle 19" width="115" height="112" rx="8" transform="translate(1602 680)" fill="#fff"/>
      <g id="Path_26" data-name="Path 26" transform="translate(1649.147 699)" fill="#8ba5ef">
        <path d="M 14.75265312194824 51.50000381469727 L 3.195469856262207 51.50000381469727 C 3.067996263504028 50.20336532592773 2.763873338699341 46.13922882080078 3.322842359542847 41.04840469360352 C 3.720122575759888 37.43017578125 4.469342231750488 34.00831604003906 5.5496826171875 30.87787437438965 C 6.895922660827637 26.97696495056152 8.763222694396973 23.52020454406738 11.09969234466553 20.60362434387207 C 13.44663238525391 17.67398452758789 16.51801300048828 14.79399394989014 20.22850227355957 12.04366397857666 C 23.20572280883789 9.836844444274902 26.59764289855957 7.708984375 30.31004333496094 5.719174385070801 C 36.64069366455078 2.325994253158569 41.77346420288086 0.4893243312835693 41.82456207275391 0.4711743295192719 L 42.3167610168457 0.2963143289089203 L 42.12061309814453 -0.1877956837415695 L 39.67080688476563 -6.232773303985596 L 52.81502914428711 1.934830784797668 L 48.7847785949707 15.81686496734619 L 46.02774429321289 9.690084457397461 L 45.83725357055664 9.26677417755127 L 45.40099334716797 9.425344467163086 C 45.35948181152344 9.440423965454102 41.19309234619141 10.96410465240479 36.26890182495117 13.56687450408936 C 29.63239288330078 17.07470512390137 24.84479331970215 20.76782417297363 22.03910255432129 24.54363441467285 C 17.24697303771973 30.99274444580078 14.8685827255249 36.79841613769531 14.76802253723145 42.29239273071289 C 14.67114734649658 47.29341506958008 14.72325134277344 50.35067749023438 14.75265312194824 51.50000381469727 Z" stroke="none"/>
        <path d="M 40.71076583862305 -4.997894287109375 L 42.58401107788086 -0.3755950927734375 L 42.97617340087891 0.5924835205078125 L 41.99198150634766 0.9422950744628906 C 41.94110107421875 0.9603843688964844 36.83119964599609 2.789775848388672 30.53147315979004 6.167774200439453 C 26.84297180175781 8.145603179931641 23.47412300109863 10.25961303710938 20.51850128173828 12.45108413696289 C 16.84602355957031 15.17407417297363 13.8083610534668 18.02216339111328 11.48992156982422 20.91623497009277 C 9.192363739013672 23.78423500061035 7.354534149169922 27.18569374084473 6.027462005615234 31.02611541748047 C 4.959133148193359 34.11779403686523 4.217361450195313 37.49927520751953 3.82275390625 41.07662582397461 C 3.318996429443359 45.64347839355469 3.516803741455078 49.37874984741211 3.652183532714844 50.99999237060547 L 14.24038314819336 50.99999237060547 C 14.21150207519531 49.58638000488281 14.18218612670898 46.71884536743164 14.26811218261719 42.28324508666992 C 14.37064361572266 36.68136596679688 16.78127288818359 30.78114318847656 21.63777160644531 24.24542427062988 C 24.48828315734863 20.4092845916748 29.3322925567627 16.66777420043945 36.03524017333984 13.12482452392578 C 40.98990249633789 10.50595474243164 45.05937194824219 9.017494201660156 45.23018264770508 8.955413818359375 L 46.10272216796875 8.638294219970703 L 46.48369216918945 9.484905242919922 L 48.68331909179688 14.37297248840332 L 52.22916030883789 2.159454345703125 L 40.71076583862305 -4.997894287109375 M 38.63086318969727 -7.467655181884766 L 53.40088272094727 1.710205078125 L 48.88623046875 17.26074409484863 L 45.57177352905273 9.895263671875 C 45.57177352905273 9.895263671875 29.09762191772461 15.88281440734863 22.44043159484863 24.84185409545898 C 17.0726318359375 32.065673828125 15.35143280029297 37.73985290527344 15.2679443359375 42.30154418945313 C 15.14125061035156 48.84142303466797 15.2679443359375 51.99999237060547 15.2679443359375 51.99999237060547 L 2.747074127197266 51.99999237060547 C 2.747074127197266 51.99999237060547 0.2951622009277344 33.291015625 10.70947265625 20.29101371765137 C 21.12378311157227 7.291015625 41.65722274780273 -3.814697265625e-06 41.65722274780273 -3.814697265625e-06 L 38.63086318969727 -7.467655181884766 Z" stroke="none" fill="#6f90f1"/>
      </g>
      <path id="Path_27" data-name="Path 27" d="M14.406,0l3.069-7.468L2.5,1.71,7.075,17.261,10.436,9.9S27.144,15.883,33.9,24.842c5.444,7.224,7.19,12.9,7.274,17.46.128,6.54,0,9.7,0,9.7h12.7s2.487-18.709-8.075-31.709S14.406,0,14.406,0Z" transform="translate(1610.045 699)" fill="rgba(139,165,239,0.47)"/>
      <text id="Directions" transform="translate(1659 756)" fill="#333333" font-size="20" font-family="SegoeUI, Segoe UI, Verdana, sans-serif"><tspan x="-44.331" y="22">Directions</tspan></text>
    </g>
  </g>
</svg>
