<svg xmlns="http://www.w3.org/2000/svg" xmlns:xlink="http://www.w3.org/1999/xlink" width="40.069" height="102.427" viewBox="0 0 48.069 102.427">
  <defs>
    <filter id="Path_14" x="0" y="9" width="39.454" height="93.427" filterUnits="userSpaceOnUse">
      <feOffset input="SourceAlpha"/>
      <feGaussianBlur stdDeviation="3.5" result="blur"/>
      <feFlood flood-opacity="0.49"/>
      <feComposite operator="in" in2="blur"/>
      <feComposite in="SourceGraphic"/>
    </filter>
    <filter id="Path_14-2" x="8.615" y="9" width="39.454" height="93.427" filterUnits="userSpaceOnUse">
      <feOffset input="SourceAlpha"/>
      <feGaussianBlur stdDeviation="3.5" result="blur-2"/>
      <feFlood flood-opacity="0.49"/>
      <feComposite operator="in" in2="blur-2"/>
      <feComposite in="SourceGraphic"/>
    </filter>
    <filter id="Path_14-3" x="4.615" y="0" width="39.454" height="93.427" filterUnits="userSpaceOnUse">
      <feOffset input="SourceAlpha"/>
      <feGaussianBlur stdDeviation="3.5" result="blur-3"/>
      <feFlood flood-opacity="0.49"/>
      <feComposite operator="in" in2="blur-3"/>
      <feComposite in="SourceGraphic"/>
    </filter>
    <filter id="Path_14-4" x="0" y="4" width="39.454" height="93.427" filterUnits="userSpaceOnUse">
      <feOffset input="SourceAlpha"/>
      <feGaussianBlur stdDeviation="3.5" result="blur-4"/>
      <feFlood flood-opacity="0.49"/>
      <feComposite operator="in" in2="blur-4"/>
      <feComposite in="SourceGraphic"/>
    </filter>
    <filter id="Path_14-5" x="4.615" y="9" width="39.454" height="93.427" filterUnits="userSpaceOnUse">
      <feOffset input="SourceAlpha"/>
      <feGaussianBlur stdDeviation="3.5" result="blur-5"/>
      <feFlood flood-opacity="0.49"/>
      <feComposite operator="in" in2="blur-5"/>
      <feComposite in="SourceGraphic"/>
    </filter>
  </defs>
  <g id="Group_21" data-name="Group 21" transform="translate(-586.636 -467.547)">
    <g transform="matrix(1, 0, 0, 1, 586.64, 467.55)" filter="url(#Path_14)">
      <path id="Path_14-6" data-name="Path 14" d="M.885,22.921V11.629c0-5.324-1.991-7.679,0-10s8.624-2,10.356,0,1.142,9.176-.963,11.322-9.393,0-9.393,0v9.974s7.435-4.965,9.393,0,.963,20.891.963,32.617.464,13.229-.963,14.287-7.427,3.472-9.393,0S.885,22.921.885,22.921Z" transform="matrix(1, -0.09, 0.09, 1, 10.5, 20.57)" fill="#ffa2a2"/>
    </g>
    <g transform="matrix(1, 0, 0, 1, 586.64, 467.55)" filter="url(#Path_14-2)">
      <path id="Path_14-7" data-name="Path 14" d="M.885,22.921V11.629c0-5.324-1.991-7.679,0-10s8.624-2,10.356,0,1.142,9.176-.963,11.322-9.393,0-9.393,0v9.974s7.435-4.965,9.393,0,.963,20.891.963,32.617.464,13.229-.963,14.287-7.427,3.472-9.393,0S.885,22.921.885,22.921Z" transform="matrix(1, -0.09, 0.09, 1, 19.11, 20.57)" fill="#ffa2a2"/>
    </g>
    <g transform="matrix(1, 0, 0, 1, 586.64, 467.55)" filter="url(#Path_14-3)">
      <path id="Path_14-8" data-name="Path 14" d="M.885,22.921V11.629c0-5.324-1.991-7.679,0-10s8.624-2,10.356,0,1.142,9.176-.963,11.322-9.393,0-9.393,0v9.974s7.435-4.965,9.393,0,.963,20.891.963,32.617.464,13.229-.963,14.287-7.427,3.472-9.393,0S.885,22.921.885,22.921Z" transform="matrix(1, -0.09, 0.09, 1, 15.11, 11.57)" fill="#ffa2a2"/>
    </g>
    <g transform="matrix(1, 0, 0, 1, 586.64, 467.55)" filter="url(#Path_14-4)">
      <path id="Path_14-9" data-name="Path 14" d="M.885,22.921V11.629c0-5.324-1.991-7.679,0-10s8.624-2,10.356,0,1.142,9.176-.963,11.322-9.393,0-9.393,0v9.974s7.435-4.965,9.393,0,.963,20.891.963,32.617.464,13.229-.963,14.287-7.427,3.472-9.393,0S.885,22.921.885,22.921Z" transform="matrix(1, -0.09, 0.09, 1, 10.5, 15.57)" fill="#ffa2a2"/>
    </g>
    <g transform="matrix(1, 0, 0, 1, 586.64, 467.55)" filter="url(#Path_14-5)">
      <path id="Path_14-10" data-name="Path 14" d="M.885,22.921V11.629c0-5.324-1.991-7.679,0-10s8.624-2,10.356,0,1.142,9.176-.963,11.322-9.393,0-9.393,0v9.974s7.435-4.965,9.393,0,.963,20.891.963,32.617.464,13.229-.963,14.287-7.427,3.472-9.393,0S.885,22.921.885,22.921Z" transform="matrix(1, -0.09, 0.09, 1, 15.11, 20.57)" fill="#650000"/>
    </g>
  </g>
</svg>
