<svg xmlns="http://www.w3.org/2000/svg" xmlns:xlink="http://www.w3.org/1999/xlink" width="100.661" height="102.789" viewBox="0 0 132.661 102.789">
  <defs>
    <filter id="Path_11" x="0" y="9" width="124.046" height="93.789" filterUnits="userSpaceOnUse">
      <feOffset input="SourceAlpha"/>
      <feGaussianBlur stdDeviation="3.5" result="blur"/>
      <feFlood flood-opacity="0.49"/>
      <feComposite operator="in" in2="blur"/>
      <feComposite in="SourceGraphic"/>
    </filter>
    <filter id="Path_11-2" x="8.615" y="9" width="124.046" height="93.789" filterUnits="userSpaceOnUse">
      <feOffset input="SourceAlpha"/>
      <feGaussianBlur stdDeviation="3.5" result="blur-2"/>
      <feFlood flood-opacity="0.49"/>
      <feComposite operator="in" in2="blur-2"/>
      <feComposite in="SourceGraphic"/>
    </filter>
    <filter id="Path_11-3" x="4.615" y="0" width="124.046" height="93.789" filterUnits="userSpaceOnUse">
      <feOffset input="SourceAlpha"/>
      <feGaussianBlur stdDeviation="3.5" result="blur-3"/>
      <feFlood flood-opacity="0.49"/>
      <feComposite operator="in" in2="blur-3"/>
      <feComposite in="SourceGraphic"/>
    </filter>
    <filter id="Path_11-4" x="0" y="4" width="124.046" height="93.789" filterUnits="userSpaceOnUse">
      <feOffset input="SourceAlpha"/>
      <feGaussianBlur stdDeviation="3.5" result="blur-4"/>
      <feFlood flood-opacity="0.49"/>
      <feComposite operator="in" in2="blur-4"/>
      <feComposite in="SourceGraphic"/>
    </filter>
    <filter id="Path_11-5" x="4.615" y="9" width="124.046" height="93.789" filterUnits="userSpaceOnUse">
      <feOffset input="SourceAlpha"/>
      <feGaussianBlur stdDeviation="3.5" result="blur-5"/>
      <feFlood flood-opacity="0.49"/>
      <feComposite operator="in" in2="blur-5"/>
      <feComposite in="SourceGraphic"/>
    </filter>
  </defs>
  <g id="Group_18" data-name="Group 18" transform="translate(-364.294 -477.711)">
    <g transform="matrix(1, 0, 0, 1, 364.29, 477.71)" filter="url(#Path_11)">
      <path id="Path_11-6" data-name="Path 11" d="M16.232,2.393C19.779-.4,36.553,0,39.467,2.393S47.992,38.448,50.1,38.479,57.56,4.812,59.79,2.393s14.463-3.88,18.351,0,20.936,57.991,19.578,60-8.465,3.536-12.7,0S68.087,26.309,68.087,26.309,57.358,60.443,54.859,62.393s-6.785,1.448-9.525,0S31.081,22.947,27.343,22.6,14.036,60.556,11.469,62.393s-9.92,2.578-11.365,0S12.684,5.183,16.232,2.393Z" transform="matrix(1, -0.09, 0.09, 1, 10.5, 28.02)" fill="#ffa2a2"/>
    </g>
    <g transform="matrix(1, 0, 0, 1, 364.29, 477.71)" filter="url(#Path_11-2)">
      <path id="Path_11-7" data-name="Path 11" d="M16.232,2.393C19.779-.4,36.553,0,39.467,2.393S47.992,38.448,50.1,38.479,57.56,4.812,59.79,2.393s14.463-3.88,18.351,0,20.936,57.991,19.578,60-8.465,3.536-12.7,0S68.087,26.309,68.087,26.309,57.358,60.443,54.859,62.393s-6.785,1.448-9.525,0S31.081,22.947,27.343,22.6,14.036,60.556,11.469,62.393s-9.92,2.578-11.365,0S12.684,5.183,16.232,2.393Z" transform="matrix(1, -0.09, 0.09, 1, 19.11, 28.02)" fill="#ffa2a2"/>
    </g>
    <g transform="matrix(1, 0, 0, 1, 364.29, 477.71)" filter="url(#Path_11-3)">
      <path id="Path_11-8" data-name="Path 11" d="M16.232,2.393C19.779-.4,36.553,0,39.467,2.393S47.992,38.448,50.1,38.479,57.56,4.812,59.79,2.393s14.463-3.88,18.351,0,20.936,57.991,19.578,60-8.465,3.536-12.7,0S68.087,26.309,68.087,26.309,57.358,60.443,54.859,62.393s-6.785,1.448-9.525,0S31.081,22.947,27.343,22.6,14.036,60.556,11.469,62.393s-9.92,2.578-11.365,0S12.684,5.183,16.232,2.393Z" transform="matrix(1, -0.09, 0.09, 1, 15.11, 19.02)" fill="#ffa2a2"/>
    </g>
    <g transform="matrix(1, 0, 0, 1, 364.29, 477.71)" filter="url(#Path_11-4)">
      <path id="Path_11-9" data-name="Path 11" d="M16.232,2.393C19.779-.4,36.553,0,39.467,2.393S47.992,38.448,50.1,38.479,57.56,4.812,59.79,2.393s14.463-3.88,18.351,0,20.936,57.991,19.578,60-8.465,3.536-12.7,0S68.087,26.309,68.087,26.309,57.358,60.443,54.859,62.393s-6.785,1.448-9.525,0S31.081,22.947,27.343,22.6,14.036,60.556,11.469,62.393s-9.92,2.578-11.365,0S12.684,5.183,16.232,2.393Z" transform="matrix(1, -0.09, 0.09, 1, 10.5, 23.02)" fill="#ffa2a2"/>
    </g>
    <g transform="matrix(1, 0, 0, 1, 364.29, 477.71)" filter="url(#Path_11-5)">
      <path id="Path_11-10" data-name="Path 11" d="M16.232,2.393C19.779-.4,36.553,0,39.467,2.393S47.992,38.448,50.1,38.479,57.56,4.812,59.79,2.393s14.463-3.88,18.351,0,20.936,57.991,19.578,60-8.465,3.536-12.7,0S68.087,26.309,68.087,26.309,57.358,60.443,54.859,62.393s-6.785,1.448-9.525,0S31.081,22.947,27.343,22.6,14.036,60.556,11.469,62.393s-9.92,2.578-11.365,0S12.684,5.183,16.232,2.393Z" transform="matrix(1, -0.09, 0.09, 1, 15.11, 28.02)" fill="#650000"/>
    </g>
  </g>
</svg>
