<svg xmlns="http://www.w3.org/2000/svg" xmlns:xlink="http://www.w3.org/1999/xlink" width="100.82" height="181.241" viewBox="0 0 116.82 181.241">
  <defs>
    <filter id="Path_18" x="0" y="9" width="108.205" height="172.241" filterUnits="userSpaceOnUse">
      <feOffset input="SourceAlpha"/>
      <feGaussianBlur stdDeviation="3.5" result="blur"/>
      <feFlood flood-opacity="0.49"/>
      <feComposite operator="in" in2="blur"/>
      <feComposite in="SourceGraphic"/>
    </filter>
    <filter id="Path_18-2" x="8.615" y="9" width="108.205" height="172.241" filterUnits="userSpaceOnUse">
      <feOffset input="SourceAlpha"/>
      <feGaussianBlur stdDeviation="3.5" result="blur-2"/>
      <feFlood flood-opacity="0.49"/>
      <feComposite operator="in" in2="blur-2"/>
      <feComposite in="SourceGraphic"/>
    </filter>
    <filter id="Path_18-3" x="4.615" y="0" width="108.205" height="172.241" filterUnits="userSpaceOnUse">
      <feOffset input="SourceAlpha"/>
      <feGaussianBlur stdDeviation="3.5" result="blur-3"/>
      <feFlood flood-opacity="0.49"/>
      <feComposite operator="in" in2="blur-3"/>
      <feComposite in="SourceGraphic"/>
    </filter>
    <filter id="Path_18-4" x="0" y="4" width="108.205" height="172.241" filterUnits="userSpaceOnUse">
      <feOffset input="SourceAlpha"/>
      <feGaussianBlur stdDeviation="3.5" result="blur-4"/>
      <feFlood flood-opacity="0.49"/>
      <feComposite operator="in" in2="blur-4"/>
      <feComposite in="SourceGraphic"/>
    </filter>
    <filter id="Path_18-5" x="4.615" y="9" width="108.205" height="172.241" filterUnits="userSpaceOnUse">
      <feOffset input="SourceAlpha"/>
      <feGaussianBlur stdDeviation="3.5" result="blur-5"/>
      <feFlood flood-opacity="0.49"/>
      <feComposite operator="in" in2="blur-5"/>
      <feComposite in="SourceGraphic"/>
    </filter>
  </defs>
  <g id="Group_25" data-name="Group 25" transform="translate(-820.215 -390.162)">
    <g transform="matrix(1, 0, 0, 1, 820.21, 390.16)" filter="url(#Path_18)">
      <path id="Path_18-6" data-name="Path 18" d="M2.523,2.848C4.682-2.68,15.513.674,17.363,2.5S16.963,8.8,18.8,9.6,40.946,2.333,50.239,6.944s19.435,8.978,22.23,27.214S66.236,74.649,61.416,79.89s-17.823,8.039-22.771,8.431-21.284-.2-21.284-.2l.221-12.067s7.206,1.5,12.509-.29,19.6-8.911,23.535-13.994,6.235-16.643,5.207-20.5a16.225,16.225,0,0,0-6.305-9.421c-3.252-2.282-5.822-5.827-11.292-6.948S23.049,22.686,19.31,29.012c-1.571,2.657-.978,17.967-1.7,45.793s1.077,60.286-1.2,65.509-11.952,7.249-16.409.38S.363,8.377,2.523,2.848Z" transform="matrix(1, -0.09, 0.09, 1, 12.34, 26.05)" fill="#ffa2a2"/>
    </g>
    <g transform="matrix(1, 0, 0, 1, 820.21, 390.16)" filter="url(#Path_18-2)">
      <path id="Path_18-7" data-name="Path 18" d="M2.523,2.848C4.682-2.68,15.513.674,17.363,2.5S16.963,8.8,18.8,9.6,40.946,2.333,50.239,6.944s19.435,8.978,22.23,27.214S66.236,74.649,61.416,79.89s-17.823,8.039-22.771,8.431-21.284-.2-21.284-.2l.221-12.067s7.206,1.5,12.509-.29,19.6-8.911,23.535-13.994,6.235-16.643,5.207-20.5a16.225,16.225,0,0,0-6.305-9.421c-3.252-2.282-5.822-5.827-11.292-6.948S23.049,22.686,19.31,29.012c-1.571,2.657-.978,17.967-1.7,45.793s1.077,60.286-1.2,65.509-11.952,7.249-16.409.38S.363,8.377,2.523,2.848Z" transform="matrix(1, -0.09, 0.09, 1, 20.96, 26.05)" fill="#ffa2a2"/>
    </g>
    <g transform="matrix(1, 0, 0, 1, 820.21, 390.16)" filter="url(#Path_18-3)">
      <path id="Path_18-8" data-name="Path 18" d="M2.523,2.848C4.682-2.68,15.513.674,17.363,2.5S16.963,8.8,18.8,9.6,40.946,2.333,50.239,6.944s19.435,8.978,22.23,27.214S66.236,74.649,61.416,79.89s-17.823,8.039-22.771,8.431-21.284-.2-21.284-.2l.221-12.067s7.206,1.5,12.509-.29,19.6-8.911,23.535-13.994,6.235-16.643,5.207-20.5a16.225,16.225,0,0,0-6.305-9.421c-3.252-2.282-5.822-5.827-11.292-6.948S23.049,22.686,19.31,29.012c-1.571,2.657-.978,17.967-1.7,45.793s1.077,60.286-1.2,65.509-11.952,7.249-16.409.38S.363,8.377,2.523,2.848Z" transform="matrix(1, -0.09, 0.09, 1, 16.96, 17.05)" fill="#ffa2a2"/>
    </g>
    <g transform="matrix(1, 0, 0, 1, 820.21, 390.16)" filter="url(#Path_18-4)">
      <path id="Path_18-9" data-name="Path 18" d="M2.523,2.848C4.682-2.68,15.513.674,17.363,2.5S16.963,8.8,18.8,9.6,40.946,2.333,50.239,6.944s19.435,8.978,22.23,27.214S66.236,74.649,61.416,79.89s-17.823,8.039-22.771,8.431-21.284-.2-21.284-.2l.221-12.067s7.206,1.5,12.509-.29,19.6-8.911,23.535-13.994,6.235-16.643,5.207-20.5a16.225,16.225,0,0,0-6.305-9.421c-3.252-2.282-5.822-5.827-11.292-6.948S23.049,22.686,19.31,29.012c-1.571,2.657-.978,17.967-1.7,45.793s1.077,60.286-1.2,65.509-11.952,7.249-16.409.38S.363,8.377,2.523,2.848Z" transform="matrix(1, -0.09, 0.09, 1, 12.34, 21.05)" fill="#ffa2a2"/>
    </g>
    <g transform="matrix(1, 0, 0, 1, 820.21, 390.16)" filter="url(#Path_18-5)">
      <path id="Path_18-10" data-name="Path 18" d="M2.523,2.848C4.682-2.68,15.513.674,17.363,2.5S16.963,8.8,18.8,9.6,40.946,2.333,50.239,6.944s19.435,8.978,22.23,27.214S66.236,74.649,61.416,79.89s-17.823,8.039-22.771,8.431-21.284-.2-21.284-.2l.221-12.067s7.206,1.5,12.509-.29,19.6-8.911,23.535-13.994,6.235-16.643,5.207-20.5a16.225,16.225,0,0,0-6.305-9.421c-3.252-2.282-5.822-5.827-11.292-6.948S23.049,22.686,19.31,29.012c-1.571,2.657-.978,17.967-1.7,45.793s1.077,60.286-1.2,65.509-11.952,7.249-16.409.38S.363,8.377,2.523,2.848Z" transform="matrix(1, -0.09, 0.09, 1, 16.96, 26.05)" fill="#650000"/>
    </g>
  </g>
</svg>
