<svg xmlns="http://www.w3.org/2000/svg" xmlns:xlink="http://www.w3.org/1999/xlink" width="60.078" height="89.805" viewBox="0 0 78.078 89.805">
  <defs>
    <filter id="Path_23" x="0" y="9" width="69.463" height="80.805" filterUnits="userSpaceOnUse">
      <feOffset input="SourceAlpha"/>
      <feGaussianBlur stdDeviation="3.5" result="blur"/>
      <feFlood flood-opacity="0.49"/>
      <feComposite operator="in" in2="blur"/>
      <feComposite in="SourceGraphic"/>
    </filter>
    <filter id="Path_23-2" x="8.615" y="9" width="69.463" height="80.805" filterUnits="userSpaceOnUse">
      <feOffset input="SourceAlpha"/>
      <feGaussianBlur stdDeviation="3.5" result="blur-2"/>
      <feFlood flood-opacity="0.49"/>
      <feComposite operator="in" in2="blur-2"/>
      <feComposite in="SourceGraphic"/>
    </filter>
    <filter id="Path_23-3" x="4.615" y="0" width="69.463" height="80.805" filterUnits="userSpaceOnUse">
      <feOffset input="SourceAlpha"/>
      <feGaussianBlur stdDeviation="3.5" result="blur-3"/>
      <feFlood flood-opacity="0.49"/>
      <feComposite operator="in" in2="blur-3"/>
      <feComposite in="SourceGraphic"/>
    </filter>
    <filter id="Path_23-4" x="0" y="4" width="69.463" height="80.805" filterUnits="userSpaceOnUse">
      <feOffset input="SourceAlpha"/>
      <feGaussianBlur stdDeviation="3.5" result="blur-4"/>
      <feFlood flood-opacity="0.49"/>
      <feComposite operator="in" in2="blur-4"/>
      <feComposite in="SourceGraphic"/>
    </filter>
    <filter id="Path_23-5" x="4.615" y="9" width="69.463" height="80.805" filterUnits="userSpaceOnUse">
      <feOffset input="SourceAlpha"/>
      <feGaussianBlur stdDeviation="3.5" result="blur-5"/>
      <feFlood flood-opacity="0.49"/>
      <feComposite operator="in" in2="blur-5"/>
      <feComposite in="SourceGraphic"/>
    </filter>
  </defs>
  <g id="Group_30" data-name="Group 30" transform="translate(-1116.782 -481.441)">
    <g transform="matrix(1, 0, 0, 1, 1116.78, 481.44)" filter="url(#Path_23)">
      <path id="Path_23-6" data-name="Path 23" d="M40.956,6.277c5.373,4.215,1.7,8.2-.658,8.88s-6.8-2.412-10.086-3.3-14.8-2.379-14.8,1.326S31.854,27.861,31.854,27.861a18.577,18.577,0,0,1,7.457,7.9c2.316,5.187,2.521,7.023.987,9.325s-2.631,3.939-8,7.04-7.264,4.076-14.707,4.076S5.96,55.381,2.083,52.131s-1.644-7.5,1.052-8.253,8.493,2.225,14.453,1.213,9.006-1.432,8.337-5.929S13.545,27.092,7.584,20.265s-4.945-4.286-5.5-8.409-.7-4.265,3.278-8.08S13.1-.16,22.591.071,35.583,2.062,40.956,6.277Z" transform="matrix(1, -0.09, 0.09, 1, 10.5, 23.31)" fill="#ffa2a2"/>
    </g>
    <g transform="matrix(1, 0, 0, 1, 1116.78, 481.44)" filter="url(#Path_23-2)">
      <path id="Path_23-7" data-name="Path 23" d="M40.956,6.277c5.373,4.215,1.7,8.2-.658,8.88s-6.8-2.412-10.086-3.3-14.8-2.379-14.8,1.326S31.854,27.861,31.854,27.861a18.577,18.577,0,0,1,7.457,7.9c2.316,5.187,2.521,7.023.987,9.325s-2.631,3.939-8,7.04-7.264,4.076-14.707,4.076S5.96,55.381,2.083,52.131s-1.644-7.5,1.052-8.253,8.493,2.225,14.453,1.213,9.006-1.432,8.337-5.929S13.545,27.092,7.584,20.265s-4.945-4.286-5.5-8.409-.7-4.265,3.278-8.08S13.1-.16,22.591.071,35.583,2.062,40.956,6.277Z" transform="matrix(1, -0.09, 0.09, 1, 19.11, 23.31)" fill="#ffa2a2"/>
    </g>
    <g transform="matrix(1, 0, 0, 1, 1116.78, 481.44)" filter="url(#Path_23-3)">
      <path id="Path_23-8" data-name="Path 23" d="M40.956,6.277c5.373,4.215,1.7,8.2-.658,8.88s-6.8-2.412-10.086-3.3-14.8-2.379-14.8,1.326S31.854,27.861,31.854,27.861a18.577,18.577,0,0,1,7.457,7.9c2.316,5.187,2.521,7.023.987,9.325s-2.631,3.939-8,7.04-7.264,4.076-14.707,4.076S5.96,55.381,2.083,52.131s-1.644-7.5,1.052-8.253,8.493,2.225,14.453,1.213,9.006-1.432,8.337-5.929S13.545,27.092,7.584,20.265s-4.945-4.286-5.5-8.409-.7-4.265,3.278-8.08S13.1-.16,22.591.071,35.583,2.062,40.956,6.277Z" transform="matrix(1, -0.09, 0.09, 1, 15.11, 14.31)" fill="#ffa2a2"/>
    </g>
    <g transform="matrix(1, 0, 0, 1, 1116.78, 481.44)" filter="url(#Path_23-4)">
      <path id="Path_23-9" data-name="Path 23" d="M40.956,6.277c5.373,4.215,1.7,8.2-.658,8.88s-6.8-2.412-10.086-3.3-14.8-2.379-14.8,1.326S31.854,27.861,31.854,27.861a18.577,18.577,0,0,1,7.457,7.9c2.316,5.187,2.521,7.023.987,9.325s-2.631,3.939-8,7.04-7.264,4.076-14.707,4.076S5.96,55.381,2.083,52.131s-1.644-7.5,1.052-8.253,8.493,2.225,14.453,1.213,9.006-1.432,8.337-5.929S13.545,27.092,7.584,20.265s-4.945-4.286-5.5-8.409-.7-4.265,3.278-8.08S13.1-.16,22.591.071,35.583,2.062,40.956,6.277Z" transform="matrix(1, -0.09, 0.09, 1, 10.5, 18.31)" fill="#ffa2a2"/>
    </g>
    <g transform="matrix(1, 0, 0, 1, 1116.78, 481.44)" filter="url(#Path_23-5)">
      <path id="Path_23-10" data-name="Path 23" d="M40.956,6.277c5.373,4.215,1.7,8.2-.658,8.88s-6.8-2.412-10.086-3.3-14.8-2.379-14.8,1.326S31.854,27.861,31.854,27.861a18.577,18.577,0,0,1,7.457,7.9c2.316,5.187,2.521,7.023.987,9.325s-2.631,3.939-8,7.04-7.264,4.076-14.707,4.076S5.96,55.381,2.083,52.131s-1.644-7.5,1.052-8.253,8.493,2.225,14.453,1.213,9.006-1.432,8.337-5.929S13.545,27.092,7.584,20.265s-4.945-4.286-5.5-8.409-.7-4.265,3.278-8.08S13.1-.16,22.591.071,35.583,2.062,40.956,6.277Z" transform="matrix(1, -0.09, 0.09, 1, 15.11, 23.31)" fill="#650000"/>
    </g>
  </g>
</svg>
